<svg preserveAspectRatio="xMidYMid meet" data-bbox="0 0 167.001 20" xmlns="http://www.w3.org/2000/svg" viewBox="0 0 167.001 20" height="40" width="334" data-type="color" role="presentation" aria-hidden="true" aria-label="">
    <g>
        <path fill="#DC5A27" d="M.27 18.566v-3.13h13.442c.84 0 1.483-.214 1.937-.643.452-.427.678-.994.678-1.7 0-.79-.226-1.373-.678-1.751-.452-.378-1.098-.568-1.937-.568H5.474c-.84 0-1.6-.127-2.281-.382a4.938 4.938 0 0 1-1.726-1.06A4.642 4.642 0 0 1 .382 7.717 5.37 5.37 0 0 1 0 5.67c0-.74.12-1.393.357-2.009a4.296 4.296 0 0 1 1.06-1.59c.47-.445 1.048-.794 1.74-1.049C3.847.768 4.637.64 5.525.64h12.874v3.131H5.523c-.74 0-1.303.194-1.69.58-.387.385-.579.924-.579 1.615s.201 1.225.603 1.603c.402.378.948.567 1.638.567h8.2c1.838 0 3.226.428 4.162 1.282.935.855 1.404 2.153 1.404 3.896a6.19 6.19 0 0 1-.343 2.096 4.525 4.525 0 0 1-1.027 1.665c-.457.47-1.033.835-1.729 1.098-.696.263-1.513.395-2.45.395H.27v-.002Z" data-color="1"></path>
        <path fill="#DC5A27" d="M30.261 18.566V11.76L20.741.639h4.218l6.98 8.261L38.941.639h3.996l-9.545 11.12v6.807H30.26Z" data-color="1"></path>
        <path fill="#DC5A27" d="M53.101 18.566V11.76L43.58.639h4.217l6.98 8.261L61.78.639h3.996l-9.545 11.12v6.807H53.1h.001Z" data-color="1"></path>
        <path fill="#DC5A27" d="M73.054 18.566c-1.25 0-2.405-.233-3.466-.702a8.61 8.61 0 0 1-2.763-1.924A8.687 8.687 0 0 1 65 13.043c-.436-1.118-.653-2.326-.653-3.625s.218-2.515.653-3.6c.435-1.084 1.044-2.009 1.825-2.774a8.211 8.211 0 0 1 2.763-1.775c1.06-.42 2.216-.629 3.466-.629h9.717v3.131h-9.717c-.806 0-1.55.145-2.232.432a5.304 5.304 0 0 0-1.764 1.196 5.483 5.483 0 0 0-1.159 1.824c-.279.707-.42 1.489-.42 2.343 0 .855.14 1.62.42 2.343.28.723.667 1.344 1.159 1.861a5.34 5.34 0 0 0 1.764 1.22 5.544 5.544 0 0 0 2.232.445h9.717v3.131h-9.717Z" data-color="1"></path>
        <path fill="#DC5A27" d="M85.312 18.566V.64h3.132v14.795h12.061v3.13H85.312v.002Z" data-color="1"></path>
        <path fill="#DC5A27" d="M132.026 13.584v-3.032h7.202c1.101 0 1.961-.308 2.577-.925.617-.617.925-1.443.925-2.478 0-1.035-.308-1.857-.924-2.466-.615-.608-1.473-.913-2.572-.913h-9.477v14.795h-3.132V.639h12.604c1.035 0 1.961.152 2.775.456.814.304 1.5.731 2.059 1.282a5.5 5.5 0 0 1 1.282 2.01c.296.79.444 1.677.444 2.664 0 .987-.148 1.853-.444 2.65a5.833 5.833 0 0 1-1.282 2.059c-.559.575-1.246 1.023-2.059 1.344-.815.32-1.74.48-2.775.48h-7.203Z" data-color="1"></path>
        <path fill="#DC5A27" d="M148.007 18.566v-3.13h13.442c.839 0 1.484-.214 1.937-.643.452-.427.678-.994.678-1.7 0-.79-.226-1.373-.678-1.751-.452-.378-1.098-.568-1.937-.568h-8.238c-.839 0-1.599-.127-2.281-.382a4.937 4.937 0 0 1-1.726-1.06 4.647 4.647 0 0 1-1.085-1.615 5.382 5.382 0 0 1-.382-2.047c0-.74.12-1.393.357-2.009a4.308 4.308 0 0 1 1.06-1.59c.469-.445 1.049-.794 1.74-1.049.691-.254 1.479-.382 2.368-.382h12.874v3.131h-12.874c-.741 0-1.303.194-1.69.58-.387.385-.579.924-.579 1.615s.201 1.225.602 1.603c.403.378.948.567 1.638.567h8.201c1.839 0 3.225.428 4.162 1.282.935.855 1.404 2.153 1.404 3.896a6.19 6.19 0 0 1-.343 2.096 4.522 4.522 0 0 1-1.028 1.665c-.457.47-1.032.835-1.73 1.098-.696.263-1.513.395-2.45.395h-13.442v-.002Z" data-color="1"></path>
        <path fill="#ffffff" d="M121.98 5.786a3.573 3.573 0 0 1-7.122-.396 3.571 3.571 0 0 1 3.811-3.563A9.957 9.957 0 0 0 112.909 0c-5.524 0-10.002 4.477-10.002 10s4.478 10 10.002 10c5.525 0 10.002-4.477 10.002-10a9.96 9.96 0 0 0-.931-4.214Z" data-color="2"></path>
    </g>
</svg>
